# xmcd
#
# Track frame offsets:
#	150
#	12446
#	26948
#	39133
#	50140
#	61190
#	74860
#	83545
#	95371
#	107028
#	120251
#	132408
#
# Disc length: 1929
#
# Revision: 3
# Processed by: cddbd v1.5.1PL0 Copyright (c) Steve Scherf et al.
# Submitted via: CDex 1.40Release
# Normalized: r2:TDELIM( - )
#
DISCID=9f07870c
DTITLE=Various Artist - Christmas Blues and Shout
DYEAR=1900
DGENRE=Christmas
TTITLE0=Lionel Hampton - Boogie Woogie Santa Claus
TTITLE1=Chuck Berry - Merry Christmas Baby
TTITLE2=Dinah Washington - Ol' Santa Claus
TTITLE3=Duke Ellington - Ring 'Dem Bells
TTITLE4=Brook Benton - This Time of Year
TTITLE5=Fats Waller - Swingin' Them Jingle Bells
TTITLE6=Lena Horne - Silent Night
TTITLE7=Louis Armstrong and Benny Carter - Christmas Night in Harlem
TTITLE8=Eartha Kitt - Nothin' for Christmas
TTITLE9=Billy Eckstine - Blue Christmas
TTITLE10=Dinah Washington - The Lord's Prayer
TTITLE11=Johnny Otis - Happy New Year, Baby
EXTD=
EXTT0=
EXTT1=
EXTT2=
EXTT3=
EXTT4=
EXTT5=
EXTT6=
EXTT7=
EXTT8=
EXTT9=
EXTT10=
EXTT11=
PLAYORDER=
